<?xml version="1.0" encoding="UTF-8" standalone="no"?>
<svg width="456" height="456" viewBox="0 0 456 456" version="1.1" xmlns="http://www.w3.org/2000/svg">
    <g transform="translate(108, 108) scale(2.4)">
        <!-- Brain Left Hemisphere -->
        <path fill="#EFF6FF" stroke="#60A5FA" stroke-width="4" stroke-linecap="round" stroke-linejoin="round" 
              d="M 50,20 
                 C 25,10 5,25 10,45 
                 C 5,60 10,75 25,85 
                 C 35,90 45,90 50,85" />
                 
        <!-- Brain Right Hemisphere -->
        <path fill="#EFF6FF" stroke="#60A5FA" stroke-width="4" stroke-linecap="round" stroke-linejoin="round" 
              d="M 50,20 
                 C 75,10 95,25 90,45 
                 C 95,60 90,75 75,85 
                 C 65,90 55,90 50,85" />

        <!-- Brain Stem -->
        <path fill="#EFF6FF" stroke="#60A5FA" stroke-width="4" stroke-linecap="round" stroke-linejoin="round" 
              d="M 45,86 L 45,95 C 45,100 55,100 55,95 L 55,86 Z" />

        <!-- Interior Brain Folds - Left -->
        <path fill="none" stroke="#93C5FD" stroke-width="3" stroke-linecap="round" d="M 25,35 C 35,30 40,40 48,35" />
        <path fill="none" stroke="#93C5FD" stroke-width="3" stroke-linecap="round" d="M 15,55 C 25,50 35,60 43,55" />
        <path fill="none" stroke="#93C5FD" stroke-width="3" stroke-linecap="round" d="M 25,75 C 35,70 40,80 48,75" />

        <!-- Interior Brain Folds - Right -->
        <path fill="none" stroke="#93C5FD" stroke-width="3" stroke-linecap="round" d="M 75,35 C 65,30 60,40 52,35" />
        <path fill="none" stroke="#93C5FD" stroke-width="3" stroke-linecap="round" d="M 85,55 C 75,50 65,60 57,55" />
        <path fill="none" stroke="#93C5FD" stroke-width="3" stroke-linecap="round" d="M 75,75 C 65,70 60,80 52,75" />

        <!-- Center Divider (Flow) -->
        <path fill="none" stroke="#93C5FD" stroke-width="4" stroke-linecap="round" stroke-dasharray="0.1,7" d="M 50,24 L 50,42" />
        <path fill="none" stroke="#93C5FD" stroke-width="4" stroke-linecap="round" stroke-dasharray="0.1,7" d="M 50,68 L 50,83" />

        <!-- Infinity Link / Flow -->
        <path fill="none" stroke="#2563EB" stroke-width="4" stroke-linecap="round" stroke-linejoin="round" 
              d="M 30,55 C 30,42 45,42 50,55 C 55,68 70,68 70,55 C 70,42 55,42 50,55 C 45,68 30,68 30,55 Z" />

        <!-- Flow Nodes -->
        <circle cx="30" cy="55" r="4.5" fill="#1D4ED8" />
        <circle cx="70" cy="55" r="4.5" fill="#1D4ED8" />
        <circle cx="50" cy="55" r="6" fill="#1E3A8A" />
        <circle cx="50" cy="55" r="2.5" fill="#60A5FA" />
        <circle cx="30" cy="55" r="1.5" fill="#60A5FA" />
        <circle cx="70" cy="55" r="1.5" fill="#60A5FA" />
    </g>
</svg>